<svg width="16" height="17" viewBox="0 0 16 17" fill="none" xmlns="http://www.w3.org/2000/svg">
<path d="M12.4439 12.0126L15.8698 15.3658C16.0434 15.5357 16.0434 15.8111 15.8698 15.981C15.6963 16.1509 15.4149 16.1509 15.2413 15.981L11.8154 12.6278C10.5617 13.7111 8.91485 14.3684 7.11111 14.3684C3.18375 14.3684 0 11.2522 0 7.40822C0 3.56423 3.18375 0.448059 7.11111 0.448059C11.0385 0.448059 14.2222 3.56423 14.2222 7.40822C14.2222 9.17367 13.5507 10.7856 12.4439 12.0126ZM7.11111 13.4984C10.5475 13.4984 13.3333 10.7717 13.3333 7.40822C13.3333 4.04473 10.5475 1.31808 7.11111 1.31808C3.67467 1.31808 0.888889 4.04473 0.888889 7.40822C0.888889 10.7717 3.67467 13.4984 7.11111 13.4984Z" fill="black"/>
</svg>
